<svg xmlns="http://www.w3.org/2000/svg" width="24" height="24" viewBox="0 0 24 24" fill="none" stroke="#22c55e" stroke-width="2" stroke-linecap="round" stroke-linejoin="round">
  <!-- Main leaf shape -->
  <path d="M11 20A7 7 0 0 1 9.8 6.1C15.5 5 17 4.48 19 2c1 2 2 4.18 2 8 0 5.5-4.78 10-10 10Z" fill="#16a34a"/>
  
  <!-- Stem/branch -->
  <path d="M2 21c0-3 1.85-5.36 5.08-6C9.5 14.52 12 13 13 12" stroke="#15803d" stroke-width="2"/>
  
  <!-- Central vein -->
  <path d="M11 19c2-4 4-8 8-17" stroke="#15803d" stroke-width="1.5" opacity="0.7"/>
  
  <!-- CO2 absorption indicators (subtle dots) -->
  <circle cx="13" cy="8" r="0.8" fill="#22c55e" opacity="0.6"/>
  <circle cx="15" cy="11" r="0.6" fill="#22c55e" opacity="0.4"/>
  <circle cx="17" cy="7" r="0.5" fill="#22c55e" opacity="0.5"/>
</svg>